<svg width="48" height="48" viewBox="0 0 48 48" fill="none" xmlns="http://www.w3.org/2000/svg">
<path d="M13.9391 8.57141C14.6511 8.57141 15.3255 8.59951 15.9625 8.65572C16.5995 8.71193 17.1991 8.79623 17.7611 8.90865C18.3607 9.02106 18.904 9.18031 19.3911 9.3864C19.8782 9.59249 20.3279 9.84541 20.74 10.1452C21.1522 10.4075 21.5269 10.726 21.8642 11.1007C22.2014 11.4754 22.4824 11.9063 22.7073 12.3934C22.9321 12.8431 23.1007 13.3583 23.2131 13.9391C23.3255 14.5199 23.3817 15.1475 23.3817 15.822C23.3817 16.5714 23.2974 17.2552 23.1288 17.8735C22.9602 18.4918 22.7073 19.0632 22.37 19.5878C22.0328 20.0749 21.6112 20.5246 21.1054 20.9368C20.5995 21.3489 20.0094 21.7049 19.3349 22.0047C20.2342 22.267 21.0211 22.6229 21.6956 23.0726C22.37 23.5222 22.9321 24.0843 23.3817 24.7588C23.8314 25.3958 24.1686 26.1077 24.3934 26.8946C24.6183 27.6815 24.7307 28.5433 24.7307 29.4801C24.7307 30.2295 24.6557 30.9321 24.5059 31.5878C24.356 32.2435 24.1499 32.8337 23.8876 33.3583C23.5878 33.9204 23.2412 34.4168 22.8478 34.8478C22.4543 35.2787 22.0141 35.6627 21.5269 36C21.0398 36.3747 20.5152 36.6838 19.9532 36.9274C19.3911 37.1709 18.7916 37.3864 18.1546 37.5738C17.555 37.7236 16.9368 37.8454 16.2998 37.9391C15.6628 38.0328 15.007 38.0796 14.3326 38.0796H0V8.57141H13.9391ZM13.096 20.4871C13.6581 20.4871 14.1827 20.4122 14.6698 20.2623C15.1569 20.1124 15.5878 19.9063 15.9625 19.644C16.3372 19.3817 16.6183 19.0257 16.8056 18.5761C16.993 18.1264 17.0867 17.5831 17.0867 16.9461C17.0867 16.6089 17.0492 16.2998 16.9742 16.0187C16.8993 15.7377 16.8056 15.4848 16.6932 15.2599C16.5808 15.0351 16.4403 14.8384 16.2717 14.6698C16.103 14.5012 15.9063 14.3606 15.6815 14.2482C15.4941 14.0983 15.2787 13.9859 15.0351 13.911C14.7916 13.836 14.5386 13.7798 14.2763 13.7424C14.014 13.6674 13.7424 13.6206 13.4614 13.6019C13.1803 13.5831 12.8899 13.5738 12.5902 13.5738H6.51991V20.4871H13.096ZM13.4333 33.0211C13.7705 33.0211 14.089 33.0117 14.3888 32.993C14.6885 32.9742 14.9883 32.9274 15.2881 32.8524C15.5878 32.7775 15.8595 32.6932 16.103 32.5995C16.3466 32.5058 16.5808 32.3841 16.8056 32.2342C17.0304 32.0843 17.2272 31.9063 17.3958 31.7002C17.5644 31.4941 17.7237 31.2787 17.8735 31.0538C17.9859 30.7916 18.0796 30.5012 18.1546 30.1827C18.2295 29.8641 18.267 29.5175 18.267 29.1428C18.267 28.356 18.1546 27.7002 17.9297 27.1756C17.7049 26.651 17.3864 26.2201 16.9742 25.8829C16.5621 25.5456 16.0656 25.3021 15.4848 25.1522C14.904 25.0023 14.2763 24.9274 13.6019 24.9274H6.51991V33.0211H13.4333ZM34.0047 32.9086C34.4543 33.3583 34.9883 33.6862 35.6066 33.8923C36.2248 34.0983 36.9461 34.2014 37.7705 34.2014C38.37 34.2014 38.9227 34.1264 39.4286 33.9766C39.9344 33.8267 40.4122 33.6019 40.8618 33.3021C41.274 33.0398 41.6112 32.7494 41.8735 32.4309C42.1358 32.1124 42.3232 31.7845 42.4356 31.4473H47.6066C47.1944 32.7213 46.6698 33.8173 46.0328 34.7353C45.3958 35.6534 44.6464 36.3934 43.7845 36.9555C42.9227 37.5175 41.9766 37.9297 40.9461 38.192C39.9157 38.4543 38.8009 38.5855 37.6019 38.5855C36.74 38.5855 35.9344 38.5199 35.185 38.3887C34.4356 38.2576 33.7237 38.0609 33.0492 37.7986C32.3747 37.5363 31.7471 37.2084 31.1663 36.815C30.5855 36.4215 30.0515 35.9813 29.5644 35.4941C29.1148 35.007 28.7119 34.4637 28.356 33.8642C28 33.2646 27.6909 32.6276 27.4286 31.9531C27.1663 31.2412 26.9696 30.5105 26.8384 29.7611C26.7073 29.0117 26.6417 28.2248 26.6417 27.4005C26.6417 26.5761 26.7073 25.7986 26.8384 25.0679C26.9696 24.3372 27.1663 23.6159 27.4286 22.904C27.6909 22.2295 28.0094 21.5925 28.3841 20.993C28.7588 20.3934 29.1897 19.8501 29.6768 19.363C30.1639 18.8384 30.6979 18.3794 31.2787 17.9859C31.8595 17.5925 32.4871 17.2459 33.1616 16.9461C33.8361 16.6464 34.5386 16.4309 35.2693 16.2997C36 16.1686 36.7775 16.103 37.6019 16.103C38.5012 16.103 39.3443 16.1873 40.1311 16.356C40.918 16.5246 41.6487 16.7775 42.3232 17.1147C42.9977 17.4894 43.6159 17.911 44.178 18.3794C44.7401 18.8478 45.2459 19.3817 45.6956 19.9812C46.1077 20.5808 46.4731 21.2178 46.7916 21.8923C47.1101 22.5667 47.363 23.2787 47.5504 24.0281C47.7377 24.7775 47.8689 25.555 47.9438 26.3606C48.0187 27.1663 48.0187 27.9812 47.9438 28.8056H32.5433C32.5433 29.63 32.6745 30.4168 32.9368 31.1663C33.1991 31.9157 33.555 32.4965 34.0047 32.9086ZM40.7494 21.7236C40.4122 21.3115 39.9532 21.0117 39.3724 20.8243C38.7916 20.637 38.1452 20.5433 37.4333 20.5433C36.9461 20.5433 36.5059 20.5808 36.1124 20.6557C35.719 20.7307 35.3724 20.8431 35.0726 20.993C34.7728 21.1428 34.5012 21.3208 34.2576 21.5269C34.0141 21.733 33.7986 21.9485 33.6112 22.1733C33.4239 22.3981 33.2646 22.6417 33.1335 22.904C33.0023 23.1663 32.8993 23.4286 32.8244 23.6909C32.7494 23.9531 32.6838 24.1967 32.6276 24.4215C32.5714 24.6464 32.5433 24.8712 32.5433 25.096H42.0984C42.0234 24.3466 41.8642 23.6909 41.6206 23.1288C41.377 22.5667 41.0867 22.0983 40.7494 21.7236ZM31.363 10.5386H43.3349V13.4613H31.363V10.5386Z" fill="#10B981"/>
</svg>
