<svg width="48" height="48" viewBox="0 0 48 48" fill="none" xmlns="http://www.w3.org/2000/svg">
<path d="M44.74 11.9719C43.6909 10.1358 42.4356 8.48713 40.9742 7.02576C39.5129 5.5644 37.8642 4.30914 36.0281 3.25995C34.192 2.1733 32.2717 1.35832 30.267 0.814989C28.2623 0.27166 26.1733 0 24 0C21.8267 0 19.7377 0.27166 17.733 0.814989C15.7283 1.35832 13.808 2.1733 11.9719 3.25995C10.1358 4.30914 8.48713 5.5644 7.02576 7.02576C5.5644 8.48713 4.30914 10.1358 3.25995 11.9719C2.1733 13.808 1.35832 15.7283 0.814989 17.733C0.27166 19.7377 0 21.8267 0 24C0 26.1733 0.27166 28.2623 0.814989 30.267C1.35832 32.2717 2.1733 34.192 3.25995 36.0281C4.30914 37.8642 5.5644 39.5129 7.02576 40.9742C8.48713 42.4356 10.1358 43.6909 11.9719 44.74C13.808 45.8267 15.7283 46.6417 17.733 47.185C19.7377 47.7283 21.8267 48 24 48C26.1733 48 28.2623 47.7283 30.267 47.185C32.2717 46.6417 34.192 45.8267 36.0281 44.74C37.8642 43.6909 39.5129 42.4356 40.9742 40.9742C42.4356 39.5129 43.7096 37.8642 44.7963 36.0281C45.8454 34.192 46.6417 32.2717 47.185 30.267C47.7283 28.2623 48 26.1733 48 24C48 21.8267 47.7283 19.7377 47.185 17.733C46.6417 15.7283 45.8267 13.808 44.74 11.9719ZM24 3.99063C26.3981 3.99063 28.6557 4.3747 30.7728 5.14286C32.8899 5.91101 34.8852 7.06322 36.7588 8.59953C35.6721 10.0234 34.3045 11.3068 32.6557 12.4496C31.007 13.5925 29.096 14.6323 26.9227 15.5691C25.7236 13.3958 24.4684 11.4005 23.1569 9.58314C21.8454 7.7658 20.4965 6.12647 19.1101 4.6651C19.9344 4.44028 20.7494 4.27166 21.555 4.15925C22.3607 4.04684 23.1756 3.99063 24 3.99063ZM8.43091 11.5222C9.33021 10.3981 10.3232 9.39579 11.4098 8.51522C12.4965 7.63466 13.6768 6.85715 14.9508 6.18267C16.4122 7.64404 17.808 9.274 19.1382 11.0726C20.4684 12.8712 21.733 14.8384 22.9321 16.9742C20.5339 17.7237 18.0703 18.2763 15.541 18.6323C13.0117 18.9883 10.4169 19.1663 7.75644 19.1663C7.04449 19.1663 6.4356 19.1569 5.92974 19.1382C5.42388 19.1194 4.98361 19.0913 4.6089 19.0539C4.98361 17.6674 5.48946 16.3466 6.12646 15.0913C6.76347 13.8361 7.53161 12.6464 8.43091 11.5222ZM3.99063 24C3.99063 23.9251 3.99063 23.8501 3.99063 23.7752C3.99063 23.7002 4.00937 23.6066 4.04684 23.4941C4.04684 23.4192 4.04684 23.3443 4.04684 23.2693C4.04684 23.1944 4.04684 23.1194 4.04684 23.0445C4.34661 23.0445 4.73068 23.0539 5.19906 23.0726C5.66745 23.0913 6.22014 23.1007 6.85714 23.1007C8.43092 23.1007 9.98594 23.0445 11.5222 22.9321C13.096 22.8197 14.6229 22.6511 16.103 22.4262C17.5831 22.2014 19.0351 21.9204 20.459 21.5831C21.8829 21.2834 23.288 20.9087 24.6745 20.459C24.8993 20.9087 25.1241 21.3864 25.3489 21.8923C25.5738 22.3981 25.8173 22.9321 26.0796 23.4941C24.4684 23.8314 22.8572 24.4309 21.2459 25.2927C19.6347 26.1546 17.986 27.2599 16.2998 28.6089C14.651 29.9579 13.2178 31.3536 12 32.7963C10.7822 34.2389 9.7986 35.7096 9.04918 37.2084C7.36299 35.2974 6.09836 33.2459 5.25527 31.0539C4.41217 28.8618 3.99063 26.5106 3.99063 24ZM24 44.0094C21.7143 44.0094 19.5597 43.6534 17.5363 42.9415C15.5129 42.2295 13.5831 41.1803 11.7471 39.7939C12.4965 38.37 13.4239 36.9742 14.5293 35.6066C15.6347 34.2389 16.9368 32.918 18.4356 31.644C19.897 30.3325 21.377 29.274 22.8759 28.4684C24.3747 27.6628 25.8548 27.0913 27.3162 26.7541C28.2529 29.3396 29.0304 31.9531 29.6487 34.5948C30.267 37.2365 30.726 39.925 31.0258 42.6604C29.8642 43.1101 28.7026 43.4473 27.541 43.6721C26.3794 43.897 25.1991 44.0094 24 44.0094ZM40.9742 34.5105C40.1873 35.7846 39.2787 36.9461 38.2482 37.9953C37.2178 39.0445 36.0656 39.9813 34.7916 40.8056C34.4918 38.2951 34.0703 35.822 33.5269 33.3864C32.9836 30.9508 32.2998 28.5527 31.4754 26.192C32.5995 26.1171 33.6581 26.0609 34.6511 26.0234C35.644 25.9859 36.5902 25.9672 37.4895 25.9672C38.4262 25.9672 39.4286 25.9859 40.4965 26.0234C41.5644 26.0609 42.6792 26.1171 43.8407 26.192C43.6909 27.6909 43.3724 29.1335 42.8852 30.5199C42.3981 31.9063 41.7611 33.2365 40.9742 34.5105ZM37.9953 22.5386C36.6089 22.5386 35.2693 22.5667 33.9766 22.623C32.6838 22.6792 31.4567 22.7635 30.2951 22.8759C29.9953 22.089 29.7049 21.3677 29.4239 20.7119C29.1429 20.0562 28.8899 19.466 28.6651 18.9415C31.1382 17.8548 33.2553 16.6557 35.0164 15.3443C36.7775 14.0328 38.1639 12.6089 39.1756 11.0726C40.637 12.7588 41.7611 14.5667 42.548 16.4965C43.3349 18.4262 43.7845 20.4777 43.897 22.6511C42.9227 22.6136 41.9485 22.5855 40.9742 22.5667C40 22.548 39.007 22.5386 37.9953 22.5386Z" fill="#10B981"/>
</svg>
