<svg width="48" height="48" viewBox="0 0 48 48" fill="none" xmlns="http://www.w3.org/2000/svg">
<path d="M16.0548 37.7507C16.0548 37.9446 15.8323 38.0997 15.5516 38.0997C15.2323 38.1288 15.0097 37.9737 15.0097 37.7507C15.0097 37.5568 15.2323 37.4017 15.5129 37.4017C15.8032 37.3726 16.0548 37.5277 16.0548 37.7507ZM13.0452 37.3144C12.9774 37.5083 13.171 37.7313 13.4613 37.7895C13.7129 37.8864 14.0032 37.7895 14.0613 37.5956C14.1194 37.4017 13.9355 37.1787 13.6452 37.0915C13.3935 37.0236 13.1129 37.1206 13.0452 37.3144ZM17.3226 37.1496C17.0419 37.2175 16.8484 37.4017 16.8774 37.6247C16.9065 37.8186 17.1581 37.9446 17.4484 37.8767C17.729 37.8089 17.9226 37.6247 17.8935 37.4308C17.8645 37.2466 17.6032 37.1206 17.3226 37.1496ZM23.6903 0C10.2677 0 0 10.2084 0 23.6548C0 34.4061 6.75484 43.6062 16.4032 46.8442C17.6419 47.0672 18.0774 46.3013 18.0774 45.6712C18.0774 45.0701 18.0484 41.7546 18.0484 39.7187C18.0484 39.7187 11.2742 41.1729 9.85161 36.8297C9.85161 36.8297 8.74839 34.0086 7.16129 33.2815C7.16129 33.2815 4.94516 31.7594 7.31613 31.7885C7.31613 31.7885 9.72581 31.9824 11.0516 34.2897C13.171 38.0318 16.7226 36.9557 18.1065 36.3159C18.329 34.7648 18.9581 33.6887 19.6548 33.0488C14.2452 32.4478 8.7871 31.6625 8.7871 22.3363C8.7871 19.6703 9.52258 18.3325 11.071 16.6262C10.8194 15.9961 9.99677 13.3979 11.3226 10.0436C13.3452 9.41344 18 12.6611 18 12.6611C19.9355 12.1182 22.0161 11.8371 24.0774 11.8371C26.1387 11.8371 28.2194 12.1182 30.1548 12.6611C30.1548 12.6611 34.8097 9.40374 36.8323 10.0436C38.1581 13.4076 37.3355 15.9961 37.0839 16.6262C38.6323 18.3421 39.5806 19.68 39.5806 22.3363C39.5806 31.6916 33.8806 32.4381 28.471 33.0488C29.3613 33.8147 30.1161 35.2689 30.1161 37.5471C30.1161 40.8142 30.0871 44.8568 30.0871 45.6518C30.0871 46.2819 30.5323 47.0478 31.7613 46.8248C41.4387 43.6062 48 34.4061 48 23.6548C48 10.2084 37.1129 0 23.6903 0ZM9.40645 33.4366C9.28065 33.5336 9.30968 33.7565 9.47419 33.9407C9.62903 34.0958 9.85161 34.1637 9.97742 34.0377C10.1032 33.9407 10.0742 33.7178 9.90968 33.5336C9.75484 33.3784 9.53226 33.3106 9.40645 33.4366ZM8.36129 32.6514C8.29355 32.7774 8.39032 32.9325 8.58387 33.0294C8.73871 33.1264 8.93226 33.0973 9 32.9616C9.06774 32.8355 8.97097 32.6804 8.77742 32.5835C8.58387 32.5253 8.42903 32.5544 8.36129 32.6514ZM11.4968 36.1026C11.3419 36.2287 11.4 36.5195 11.6226 36.7037C11.8452 36.9267 12.1258 36.9557 12.2516 36.8006C12.3774 36.6746 12.3194 36.3838 12.1258 36.1996C11.9129 35.9766 11.6226 35.9475 11.4968 36.1026ZM10.3935 34.6775C10.2387 34.7745 10.2387 35.0265 10.3935 35.2495C10.5484 35.4725 10.8097 35.5694 10.9355 35.4725C11.0903 35.3464 11.0903 35.0944 10.9355 34.8714C10.8 34.6484 10.5484 34.5515 10.3935 34.6775Z" fill="#10B981"/>
</svg>
