<svg width="48" height="48" viewBox="0 0 48 48" fill="none" xmlns="http://www.w3.org/2000/svg">
<path d="M44.5714 0C45.5 0 46.3036 0.339282 46.9821 1.01786C47.6607 1.69643 48 2.5 48 3.42857V44.5714C48 45.5 47.6607 46.3036 46.9821 46.9821C46.3036 47.6607 45.5 48 44.5714 48H3.42857C2.5 48 1.69643 47.6607 1.01786 46.9821C0.339282 46.3036 0 45.5 0 44.5714V3.42857C0 2.5 0.339282 1.69643 1.01786 1.01786C1.69643 0.339282 2.5 0 3.42857 0H44.5714ZM14.4643 41.1429H14.5714V18.2143H7.39286V41.1429H14.4643ZM8.03571 13.9286C8.82143 14.7143 9.78571 15.1071 10.9286 15.1071C12.0714 15.1071 13.0536 14.6964 13.875 13.875C14.6964 13.0536 15.1071 12.0893 15.1071 10.9821C15.1071 9.875 14.6964 8.91072 13.875 8.08929C13.0536 7.26785 12.0714 6.85714 10.9286 6.85714C9.78571 6.85714 8.82143 7.26785 8.03571 8.08929C7.25 8.91072 6.85714 9.875 6.85714 10.9821C6.85714 12.0893 7.25 13.0714 8.03571 13.9286ZM41.1429 41.1429V28.6071C41.1429 26.8928 41.0357 25.4286 40.8214 24.2143C40.6071 23 40.2143 21.875 39.6429 20.8393C39.0714 19.8036 38.1964 19.0179 37.0179 18.4821C35.8393 17.9464 34.3929 17.6786 32.6786 17.6786C31.0357 17.6786 29.625 18.0357 28.4464 18.75C27.2679 19.4643 26.4286 20.3214 25.9286 21.3214H25.8214V18.2143H18.9643V41.1429H26.1429V29.7857C26.1429 28 26.4286 26.5714 27 25.5C27.5714 24.4286 28.6786 23.8929 30.3214 23.8929C31.1786 23.8929 31.8929 24.0714 32.4643 24.4286C33.0357 24.7857 33.4107 25.3214 33.5893 26.0357C33.7679 26.75 33.8929 27.375 33.9643 27.9107C34.0357 28.4464 34.0714 29.1429 34.0714 30V41.1429H41.1429Z" fill="#10B981"/>
</svg>
