<svg width="45" height="45" viewBox="0 0 45 45" fill="none" xmlns="http://www.w3.org/2000/svg">
<path fill-rule="evenodd" clip-rule="evenodd" d="M27.2898 1.47516C18.7335 -2.34084 8.70371 1.50195 4.88771 10.0583L1.47516 17.71C-2.34084 26.2664 1.50195 36.2961 10.0583 40.1121L17.71 43.5247C26.2664 47.3407 36.2961 43.4979 40.1121 34.9415L43.5247 27.2898C47.3407 18.7335 43.4979 8.70371 34.9415 4.88771L27.2898 1.47516ZM32.4539 19.7019C31.715 19.2345 30.8631 19.0008 29.898 19.0008C29.1441 19.0008 28.458 19.1591 27.8398 19.4758C27.2366 19.7773 26.7692 20.2071 26.4374 20.765V15.8116C26.4374 15.3593 26.2867 14.9974 25.9851 14.726C25.6835 14.4545 25.2839 14.3188 24.7863 14.3188C24.2586 14.3188 23.8288 14.4621 23.4971 14.7486C23.1804 15.0351 23.0221 15.412 23.0221 15.8795V28.9075C23.0221 29.39 23.1729 29.7821 23.4745 30.0836C23.7911 30.3701 24.2058 30.5134 24.7185 30.5134C25.2312 30.5134 25.6383 30.3701 25.9399 30.0836C26.2414 29.7821 26.3922 29.39 26.3922 28.9075V28.7265C26.7239 29.2995 27.1989 29.7519 27.8172 30.0836C28.4354 30.4003 29.129 30.5586 29.898 30.5586C30.848 30.5586 31.6924 30.3174 32.4312 29.8348C33.1852 29.3372 33.7657 28.6512 34.1728 27.7766C34.595 26.8869 34.8061 25.8691 34.8061 24.7231C34.8061 23.5772 34.595 22.5744 34.1728 21.7149C33.7657 20.8404 33.1927 20.1694 32.4539 19.7019ZM30.7575 27.1207C30.3202 27.6786 29.702 27.9575 28.9028 27.9575C28.1036 27.9575 27.4854 27.6861 27.0481 27.1433C26.6109 26.5854 26.3922 25.7937 26.3922 24.7684C26.3922 23.7581 26.6109 22.9816 27.0481 22.4387C27.4854 21.8808 28.1036 21.6019 28.9028 21.6019C29.702 21.6019 30.3202 21.8733 30.7575 22.4161C31.1948 22.9439 31.4134 23.7129 31.4134 24.7231C31.4134 25.7485 31.1948 26.5477 30.7575 27.1207ZM19.6909 19.7472C18.952 19.2496 18.1076 19.0008 17.1577 19.0008C16.3887 19.0008 15.695 19.1666 15.0768 19.4984C14.4586 19.815 13.9836 20.2598 13.6519 20.8328V20.6519C13.6519 20.1694 13.5011 19.7849 13.1995 19.4984C12.8979 19.1968 12.4908 19.046 11.9781 19.046C11.4655 19.046 11.0508 19.1968 10.7341 19.4984C10.4326 19.7849 10.2818 20.1694 10.2818 20.6519V33.0014C10.2818 33.4688 10.4401 33.8458 10.7568 34.1323C11.0885 34.4188 11.5182 34.562 12.046 34.562C12.5436 34.562 12.9432 34.4263 13.2447 34.1549C13.5463 33.8835 13.6971 33.5216 13.6971 33.0692V28.7944C14.0288 29.3523 14.4963 29.7896 15.0994 30.1063C15.7177 30.4078 16.4037 30.5586 17.1577 30.5586C18.1227 30.5586 18.9747 30.3249 19.7135 29.8575C20.4524 29.39 21.0254 28.7266 21.4325 27.8671C21.8547 26.9925 22.0658 25.9822 22.0658 24.8362C22.0658 23.6903 21.8547 22.68 21.4325 21.8054C21.0254 20.9158 20.4448 20.2297 19.6909 19.7472ZM18.0172 27.1659C17.5799 27.6937 16.9616 27.9575 16.1625 27.9575C15.3633 27.9575 14.7451 27.6861 14.3078 27.1433C13.8705 26.5854 13.6519 25.8013 13.6519 24.791C13.6519 23.7657 13.8705 22.9816 14.3078 22.4387C14.7451 21.8808 15.3633 21.6019 16.1625 21.6019C16.9616 21.6019 17.5799 21.8884 18.0172 22.4613C18.4544 23.0193 18.6731 23.8109 18.6731 24.8362C18.6731 25.8465 18.4544 26.6231 18.0172 27.1659Z" fill="#4DBB7B"/>
</svg>
