<svg width="48" height="48" viewBox="0 0 48 48" fill="none" xmlns="http://www.w3.org/2000/svg">
<g clip-path="url(#clip0_2:2)">
<path d="M24 0C20.6948 0 17.5775 0.619712 14.6479 1.85916C11.7183 3.13616 9.17372 4.85445 7.01408 7.01409C4.85445 9.17372 3.13616 11.7183 1.85916 14.6479C0.619712 17.5775 0 20.6948 0 24C0 27.3052 0.619712 30.4225 1.85916 33.3521C3.13616 36.2817 4.85445 38.8263 7.01408 40.9859C9.17372 43.1456 11.7183 44.8638 14.6479 46.1408C17.5775 47.4179 20.6948 48.0563 24 48.0563C27.3052 48.0563 30.4225 47.4179 33.3521 46.1408C36.2817 44.9014 38.8263 43.1925 40.9859 41.0141C43.1455 38.8357 44.8638 36.2817 46.1408 33.3521C47.3803 30.4225 48 27.3052 48 24C48 20.6948 47.3803 17.5775 46.1408 14.6479C44.8638 11.7183 43.1455 9.17372 40.9859 7.01409C38.8263 4.85445 36.2817 3.13616 33.3521 1.85916C30.4225 0.619712 27.3052 0 24 0ZM24.3944 32.507C24.3192 32.5446 24.2535 32.5822 24.1972 32.6197C24.1408 32.6573 24.0751 32.6761 24 32.6761H10.6479C10.4977 32.6761 10.3568 32.6103 10.2254 32.4789C10.0939 32.3474 10.0282 32.1878 10.0282 32V15.9437C10.0282 15.7559 10.0939 15.5962 10.2254 15.4648C10.3568 15.3333 10.4977 15.2676 10.6479 15.2676H16.9014C18.8169 15.2676 20.3286 15.7653 21.4366 16.7606C22.5446 17.7559 23.0986 19.1361 23.0986 20.9014C23.0986 22.0657 22.8263 23.0798 22.2817 23.9437C21.7371 24.8075 20.9953 25.4272 20.0563 25.8028L24.4507 31.6056C24.5634 31.7183 24.6197 31.8685 24.6197 32.0563C24.6197 32.2441 24.5446 32.3944 24.3944 32.507ZM33.2958 32.6761H26.8732C26.6854 32.6761 26.5352 32.6103 26.4225 32.4789C26.3099 32.3474 26.2535 32.1878 26.2535 32V15.9437C26.2535 15.7559 26.3099 15.6056 26.4225 15.493C26.5352 15.3803 26.6854 15.3239 26.8732 15.3239H32.7887C35.0423 15.3239 36.507 15.8498 37.1831 16.9014C37.8592 17.9531 38.1972 19.0235 38.1972 20.1127C38.1972 20.7512 38.1127 21.3239 37.9437 21.831C37.7746 22.338 37.5211 22.7793 37.1831 23.1549C38.0094 23.493 38.6385 24.0376 39.0704 24.7887C39.5023 25.5399 39.7183 26.4601 39.7183 27.5493C39.7183 29.1268 39.1455 30.3756 38 31.2958C36.8545 32.216 35.2864 32.6761 33.2958 32.6761Z" fill="#10B981"/>
</g>
<defs>
<clipPath id="clip0_2:2">
<rect width="48" height="48" fill="white"/>
</clipPath>
</defs>
</svg>
