<svg width="48" height="48" viewBox="0 0 48 48" fill="none" xmlns="http://www.w3.org/2000/svg">
<path d="M24 0C10.7568 0 0 10.7568 0 24C0 37.2432 10.7568 48 24 48C37.2432 48 48 37.2432 48 24C48 10.7568 37.2432 0 24 0ZM24 2.08696C36.1141 2.08696 45.913 11.8859 45.913 24C45.913 36.1141 36.1141 45.913 24 45.913C11.8859 45.913 2.08696 36.1141 2.08696 24C2.08696 11.8859 11.8859 2.08696 24 2.08696ZM37.0435 10.4348C34.712 10.4348 25.4837 12.5014 22.1087 19.9932C21.6889 19.4755 19.9973 17.7391 15.644 17.7391C12.1264 17.7391 8.34783 18.913 8.34783 22.4348C8.34783 27.1304 15.644 27.3913 15.644 30.2609C15.644 33.3913 12.2568 33.3913 12.2568 33.3913C12.2568 33.3913 11.7351 29.2174 8.34783 29.2174C7.82609 29.2174 6.26087 29.4783 6.26087 31.3043C6.26087 32.0829 6.88859 32.8736 7.41033 33.2364C8.70245 34.1413 10.4226 34.4348 13.8261 34.4348C19.659 34.4348 21.2812 31.8791 21.4443 29.6413C22.7772 33.2772 26.1766 34.4348 28.9402 34.4348C33.1141 34.4348 37.2187 31.0353 38.5842 28.3043C39.7541 25.9565 41.4497 18.7826 34.4144 18.7826C30.7622 18.7826 28.1576 20.4783 28.1576 20.4783C28.1576 20.3478 28.6957 17.3478 31.8261 14.4783C33.3913 13.0435 34.9443 12.5829 35.8696 12.4647C37.4348 12.2609 37.9361 11.9796 38.3234 11.4783C39.0367 10.5571 38.3478 10.4348 37.0435 10.4348ZM16.6875 18.7826C16.6875 18.7826 16.288 22.9565 19.8139 22.9565C20.2541 22.9565 20.8003 22.7853 21.2772 22.4633C21.0122 23.5761 20.8573 24.7785 20.8573 26.087C20.8573 26.3438 20.8777 26.5761 20.8899 26.8207C20.8818 26.7962 20.8696 26.7595 20.8573 26.7391C19.2921 24.1304 13.5611 24.1304 13.5611 21.3913C13.5611 18.6522 16.6875 18.7826 16.6875 18.7826ZM30.3587 21.913C32.8207 21.8886 33.8397 24.4769 33.1671 27.913C32.7554 30.0489 31.2921 33.3383 29.0177 33.3913C27.7704 33.4158 26.2011 31.2228 26.2011 28.2962C26.2011 24.3505 28.6141 21.9293 30.3587 21.913Z" fill="#10B981"/>
</svg>
