<svg width="48" height="48" viewBox="0 0 48 48" fill="none" xmlns="http://www.w3.org/2000/svg">
<path d="M1.59375 32.6049L2.39063 29.2299L1.59375 25.7612C1.59375 25.6987 1.54688 25.6518 1.45312 25.6205C1.35937 25.5893 1.26563 25.5737 1.17187 25.5737C1.04687 25.5737 0.937501 25.5893 0.84375 25.6205C0.749999 25.6518 0.703125 25.6987 0.703125 25.7612L0 29.2299L0.703125 32.6049C0.703125 32.6362 0.749999 32.6674 0.84375 32.6987C0.937501 32.7299 1.04687 32.7455 1.17187 32.7455C1.26563 32.7455 1.35937 32.7299 1.45312 32.6987C1.54688 32.6674 1.59375 32.6362 1.59375 32.6049ZM6.51563 34.433L7.21875 29.2768L6.51563 21.2143C6.51563 21.1205 6.46094 21.0346 6.35156 20.9565C6.24219 20.8784 6.10938 20.8393 5.95313 20.8393C5.79687 20.8393 5.66406 20.8784 5.55469 20.9565C5.44531 21.0346 5.39063 21.1205 5.39063 21.2143L4.78125 29.2768L5.39063 34.433C5.39063 34.558 5.44531 34.6518 5.55469 34.7143C5.66406 34.7768 5.79687 34.808 5.95313 34.808C6.10938 34.808 6.24219 34.7768 6.35156 34.7143C6.46094 34.6518 6.51563 34.558 6.51563 34.433ZM11.4375 34.3862L12 29.2768L11.4375 18.5893C11.4375 18.433 11.375 18.3159 11.25 18.2377C11.125 18.1596 10.9688 18.1205 10.7813 18.1205C10.5937 18.1205 10.4375 18.1596 10.3125 18.2377C10.1875 18.3159 10.1094 18.433 10.0781 18.5893L9.60938 29.2768L10.0781 34.3862C10.1094 34.5112 10.1875 34.6127 10.3125 34.6909C10.4375 34.769 10.5937 34.808 10.7813 34.808C10.9688 34.808 11.125 34.769 11.25 34.6909C11.375 34.6127 11.4375 34.5112 11.4375 34.3862ZM16.3594 34.2924L16.7813 29.2768L16.3594 18.4955C16.3281 18.3393 16.2422 18.2143 16.1016 18.1205C15.9609 18.0268 15.7813 17.9799 15.5625 17.9799C15.375 17.9799 15.2031 18.0268 15.0469 18.1205C14.8906 18.2143 14.8125 18.3393 14.8125 18.4955L14.3906 29.2768L14.8125 34.2924C14.8125 34.4487 14.8906 34.5737 15.0469 34.6674C15.2031 34.7612 15.375 34.808 15.5625 34.808C15.7813 34.808 15.9609 34.7612 16.1016 34.6674C16.2422 34.5737 16.3281 34.4487 16.3594 34.2924ZM21.2344 34.2455L21.6094 29.2768L21.2344 16.9018C21.2344 16.7455 21.1484 16.6049 20.9766 16.4799C20.8047 16.3549 20.6094 16.2924 20.3906 16.2924C20.1406 16.2924 19.9375 16.3549 19.7813 16.4799C19.625 16.6049 19.5469 16.7455 19.5469 16.9018L19.2188 29.2768L19.5469 34.2455C19.5469 34.4018 19.625 34.5424 19.7813 34.6674C19.9375 34.7924 20.1406 34.8549 20.3906 34.8549C20.6094 34.8549 20.8047 34.7924 20.9766 34.6674C21.1484 34.5424 21.2344 34.4018 21.2344 34.2455ZM24.6563 34.8549C24.6563 34.8549 25.5469 34.8549 27.3281 34.8549C29.1094 34.8549 31.0703 34.8549 33.2109 34.8549C35.3516 34.8549 37.3125 34.8549 39.0938 34.8549C40.875 34.8549 41.7813 34.8549 41.8125 34.8549C43.5313 34.8549 44.9922 34.269 46.1953 33.0971C47.3984 31.9252 48 30.5112 48 28.8549C48 27.1987 47.3984 25.7924 46.1953 24.6362C44.9922 23.4799 43.5313 22.9018 41.8125 22.9018C41.375 22.9018 40.9609 22.9409 40.5703 23.019C40.1797 23.0971 39.7969 23.2143 39.4219 23.3705C39.2969 21.9955 38.9297 20.7299 38.3203 19.5737C37.7109 18.4174 36.9219 17.4018 35.9531 16.5268C34.9844 15.6518 33.8672 14.9643 32.6016 14.4643C31.3359 13.9643 29.9844 13.7143 28.5469 13.7143C27.8594 13.7143 27.1797 13.7768 26.5078 13.9018C25.8359 14.0268 25.2031 14.2143 24.6094 14.4643C24.3594 14.5268 24.1953 14.6127 24.1172 14.7221C24.0391 14.8315 24 14.9799 24 15.1674V34.1518C24 34.3393 24.0625 34.4955 24.1875 34.6205C24.3125 34.7455 24.4687 34.8237 24.6563 34.8549Z" fill="#10B981"/>
</svg>
