<svg width="48" height="48" viewBox="0 0 48 48" fill="none" xmlns="http://www.w3.org/2000/svg">
<path d="M40.9688 7.03125C36.2812 2.34373 30.625 0 24 0C17.375 0 11.7188 2.34373 7.03125 7.03125C2.34373 11.7188 0 17.375 0 24C0 30.625 2.34373 36.2812 7.03125 40.9688C11.7188 45.6563 17.375 48 24 48C30.625 48 36.2812 45.6563 40.9688 40.9688C45.6563 36.2812 48 30.625 48 24C48 17.375 45.6563 11.7188 40.9688 7.03125ZM35.0625 38.0625C34.75 38.625 34.2813 38.9063 33.6563 38.9063C33.3437 38.9063 33.0625 38.8438 32.8125 38.7188C28.9375 36.5312 24.75 35.4375 20.25 35.4375C17.5625 35.4375 14.9688 35.8437 12.4688 36.6563C12.0312 36.7813 11.6094 36.7344 11.2031 36.5156C10.7969 36.2969 10.5313 35.9688 10.4063 35.5313C10.2812 35.0937 10.3281 34.5313 10.5469 33.8438C10.7656 33.1562 11.0937 32.7188 11.5313 32.5313C14.3438 31.6562 17.25 31.2188 20.25 31.2188C25.3125 31.2188 30.0312 32.4375 34.4063 34.875C34.8438 35.125 35.125 35.625 35.25 36.375C35.375 37.125 35.3125 37.6875 35.0625 38.0625ZM38.1563 29.0625C37.5312 30.1875 36.9688 30.75 36.4688 30.75C36.0937 30.75 35.7813 30.6875 35.5313 30.5625C30.7812 28.0625 25.6875 26.8125 20.25 26.8125C17.25 26.8125 14.3125 27.2187 11.4375 28.0313C10.9375 28.1563 10.4531 28.0781 9.98438 27.7969C9.51562 27.5156 9.21875 27.125 9.09375 26.625C8.96875 26.0625 9.04687 25.4531 9.32813 24.7969C9.60938 24.1406 9.96875 23.75 10.4063 23.625C13.6563 22.75 16.9375 22.3125 20.25 22.3125C26.3125 22.3125 32 23.6875 37.3125 26.4375C37.8125 26.6875 38.1406 27.0625 38.2969 27.5625C38.4531 28.0625 38.4063 28.5625 38.1563 29.0625ZM41.3438 20.3438C40.9062 21.2813 40.25 21.75 39.375 21.75C39.0625 21.75 38.75 21.6875 38.4375 21.5625C32.75 18.6875 26.6875 17.25 20.25 17.25C16.875 17.25 13.5938 17.6562 10.4063 18.4688C9.78125 18.6563 9.21875 18.5938 8.71875 18.2813C8.21875 17.9687 7.89063 17.5156 7.73438 16.9219C7.57812 16.3281 7.65625 15.7344 7.96875 15.1406C8.28125 14.5469 8.71875 14.1563 9.28125 13.9688C12.8438 13.0937 16.5 12.6563 20.25 12.6563C27.375 12.6563 34.0937 14.25 40.4063 17.4375C40.9688 17.6875 41.3438 18.0937 41.5313 18.6563C41.7188 19.2188 41.6563 19.7812 41.3438 20.3438Z" fill="#10B981"/>
</svg>
