<svg width="48" height="48" viewBox="0 0 48 48" fill="none" xmlns="http://www.w3.org/2000/svg">
<path d="M48 9.77232C46.6396 11.7622 44.9949 13.4576 43.066 14.8586C43.0863 15.1429 43.0964 15.5693 43.0964 16.1378C43.0964 18.7774 42.7107 21.4119 41.9391 24.0414C41.1675 26.6708 39.9949 29.1936 38.4213 31.6099C36.8477 34.0261 34.9746 36.1632 32.802 38.0211C30.6294 39.8789 28.0102 41.3611 24.9442 42.4678C21.8782 43.5744 18.599 44.1277 15.1066 44.1277C9.60403 44.1277 4.56855 42.6556 0 39.7114C0.710663 39.7926 1.50253 39.8332 2.37563 39.8332C6.94418 39.8332 11.0152 38.4322 14.5888 35.6302C12.4568 35.5896 10.5482 34.9348 8.86294 33.6657C7.17766 32.3967 6.02031 30.7774 5.39086 28.8079C6.06092 28.9094 6.6802 28.9601 7.24873 28.9601C8.12183 28.9601 8.98477 28.8485 9.83756 28.6251C7.56344 28.1581 5.68021 27.0261 4.18782 25.2292C2.69542 23.4322 1.94924 21.3459 1.94924 18.9703V18.8485C3.32996 19.62 4.81217 20.0363 6.39594 20.0972C5.05583 19.2038 3.98985 18.0363 3.19797 16.5947C2.40609 15.153 2.01015 13.5896 2.01015 11.9043C2.01015 10.1175 2.45685 8.46269 3.35025 6.93984C5.80712 9.96523 8.79694 12.3865 12.3198 14.2038C15.8427 16.0211 19.6142 17.0312 23.6345 17.2343C23.4721 16.4627 23.3909 15.7114 23.3909 14.9804C23.3909 12.2596 24.3502 9.93985 26.269 8.02106C28.1878 6.10226 30.5076 5.14288 33.2284 5.14288C36.0711 5.14288 38.467 6.17841 40.4162 8.24948C42.6294 7.82308 44.7106 7.03121 46.6599 5.87385C45.9086 8.20888 44.467 10.016 42.335 11.2952C44.2234 11.0921 46.1117 10.5845 48 9.77232Z" fill="#10B981"/>
</svg>
