<svg width="48" height="48" viewBox="0 0 48 48" fill="none" xmlns="http://www.w3.org/2000/svg">
<path d="M0 24C0 10.764 10.764 0 24 0C37.236 0 48 10.764 48 24C48 37.236 37.236 48 24 48C10.764 48 0 37.236 0 24ZM11.8728 36.3576C12.1392 36.7128 12.7152 36.6672 13.2024 36.2688C14.2656 35.4264 15.2856 34.7616 17.2344 34.7616C20.9112 34.7616 23.8368 37.0656 28.224 37.0656C31.5912 37.1088 33.7176 35.8248 34.9152 34.0968C35.8464 32.7672 36.288 30.9504 36.288 29.532C36.288 27.5376 35.136 26.208 33.1416 26.208C31.236 26.208 30.396 27.1824 30.3048 28.6008C30.2616 29.1768 30.2616 30.2856 29.9064 30.816C29.5512 31.392 28.8864 31.5696 28.0896 31.5696C26.0064 31.5696 23.5248 29.8872 20.7792 29.8872H20.3808L38.2368 15.4416C38.5464 15.2184 38.6808 14.688 38.3256 14.4216L35.5776 11.1864C35.0904 10.7424 34.7352 10.788 34.248 11.1864C33.3168 11.94 32.4312 12.6936 30.5256 12.6936C27.4224 12.6936 24.1008 10.7448 19.7592 10.7448C16.6584 10.7448 14.928 11.8968 13.7328 13.1376C12.5808 14.3784 11.784 16.3728 11.784 18.2784C11.784 20.2272 12.936 21.468 14.8416 21.468C16.5696 21.468 17.5896 20.4936 17.5896 19.1208C17.5896 18.324 17.6328 17.6136 17.988 17.0832C18.2976 16.5528 19.0968 16.0632 20.2032 16.0632C21.9312 16.0632 25.2096 17.2584 27.2496 17.2584H27.3816L9.3024 31.6152C8.9472 31.8816 8.9472 32.5008 9.1704 32.8104L11.8728 36.3576Z" fill="#10B981"/>
</svg>
